# xmcd
#
# Track frame offsets:
#	183
#	18858
#	30645
#	42470
#	63433
#	80158
#	91670
#	103758
#	120408
#	134995
#	147108
#	159608
#	176470
#	190033
#	206783
#	218083
#
# Disc length: 3142 seconds
#
# Revision: 4
# Processed by: cddbd v1.5.2PL0 Copyright (c) Steve Scherf et al.
# Submitted via: EasyCDDAExtractor 9.0.0.1
#
DISCID=e10c4410
DTITLE=Various Artist - 50 Baladas Inolvidables Vol.1 Disco 1
DYEAR=1900
DGENRE=Ballad
TTITLE0=PROCOL HARUM - A Whiter Shade Of Pale
TTITLE1=JOHN TRAVOLTA - Sandy
TTITLE2=THE PLATTERS - Only You
TTITLE3=PAUL ANKA - My Way
TTITLE4=PETULA CLARK - This Is My Song
TTITLE5=PAT BOONE - Three Coins In The Fountain
TTITLE6=NEIL SEDAKA - You Mean Everything To Me
TTITLE7=ENGELBERT HUMPERDINCK - Please, Release Me
TTITLE8=THE TREMELOES - Silence Is Golden
TTITLE9=PERCY SLEDGE - Sittin' On The Dock Of The Bay
TTITLE10=CHRIS BARBER - Pequeña flor
TTITLE11=OLIVER, (THE LONDON CAST) - Good Morning Starshine (Hair)
TTITLE12=DIONNE WARWICK - Raindrops Keep Fallin On My Head
TTITLE13=CAROLE KING - You Go Your Way I'll Go Mine
TTITLE14=MATT MONRO - A Place In Paris
TTITLE15=FRANCIS LAI - Live For Life
EXTD=AVM
EXTT0=
EXTT1=
EXTT2=
EXTT3=
EXTT4=
EXTT5=
EXTT6=
EXTT7=
EXTT8=
EXTT9=
EXTT10=
EXTT11=
EXTT12=
EXTT13=
EXTT14=
EXTT15=
PLAYORDER=
